<svg width="63" height="66" viewBox="0 0 63 66" fill="none" xmlns="http://www.w3.org/2000/svg">
<rect width="63" height="66" rx="5" fill="white"/>
<g clip-path="url(#clip0_1218_5170)">
<g clip-path="url(#clip1_1218_5170)">
<path d="M9.26114 4.16943H53.7706C55.8811 4.16943 57.5821 5.87043 57.5821 7.98093V52.4904C57.5821 54.6009 55.8811 56.3019 53.7706 56.3019H9.26114C7.15064 56.3019 5.44964 54.6009 5.44964 52.4904V7.98093C5.41814 5.87043 7.15064 4.16943 9.26114 4.16943Z" fill="#00A79D"/>
<path d="M46.7126 36.5514H46.6496L37.5461 37.3074C36.9476 37.3704 36.8216 37.4019 36.7271 36.6144L35.4671 23.2899C35.4356 21.8409 34.5221 20.5494 33.1991 20.0139C31.6556 19.3839 29.8601 19.8564 28.8206 21.1479L13.3856 46.1274C12.4721 47.2614 12.2516 48.8049 12.8501 50.1594C13.4171 51.3879 14.6456 52.1439 15.9686 52.1124H21.5126C22.0481 52.1124 22.4576 51.6714 22.4576 51.1674V48.3324C22.4576 47.7969 22.0166 47.3874 21.5126 47.3874H19.8746C19.3391 47.3874 18.9296 46.9464 18.9296 46.4424C18.9296 46.2534 18.9926 46.0959 19.0871 45.9384L29.5451 28.9599C29.8286 28.5189 30.3956 28.3614 30.8681 28.6449C31.1201 28.8024 31.2776 29.0859 31.3091 29.3694L32.1911 38.5674C32.2856 40.5519 33.8921 42.1269 35.9081 42.1584H36.0026L43.5311 41.5284C44.0666 41.4969 44.5076 41.8749 44.5706 42.4104C44.5706 42.5679 44.5706 42.7254 44.5076 42.8514L42.9011 46.7574C42.7436 47.1354 42.3971 47.3559 42.0191 47.3559H25.0721C24.5366 47.3559 24.1271 47.7654 24.1271 48.3009V51.1359C24.1271 51.6714 24.5681 52.0809 25.0721 52.0809H42.9641C44.8856 52.0809 46.5866 50.7894 47.1221 48.9309L50.4611 40.7409C50.4611 40.7409 50.4611 40.7409 50.4611 40.7094V40.2999C50.4611 38.2524 48.7916 36.5514 46.7126 36.5514Z" fill="white"/>
<path d="M31.499 18.9744C34.4217 18.9744 36.791 16.6051 36.791 13.6824C36.791 10.7597 34.4217 8.39043 31.499 8.39043C28.5763 8.39043 26.207 10.7597 26.207 13.6824C26.207 16.6051 28.5763 18.9744 31.499 18.9744Z" fill="#1D1A4F"/>
<path d="M6.61328 59.5149C6.61328 59.1054 6.89678 58.9794 7.18028 58.9794H7.49528C7.81028 58.9794 7.96778 59.1054 8.09378 59.4519L9.00728 62.4129L9.92078 59.4519C10.0153 59.1054 10.1728 58.9794 10.5193 58.9794H10.8343C11.1178 58.9794 11.4013 59.0739 11.4013 59.5149V63.2634C11.4328 63.5154 11.2438 63.7359 10.9603 63.7674C10.6768 63.7989 10.4878 63.6099 10.4563 63.3264C10.4563 63.2949 10.4563 63.2634 10.4563 63.2634V60.3969L9.47978 63.4524C9.41678 63.6414 9.22778 63.7674 9.03878 63.7674C8.84978 63.7989 8.66078 63.6729 8.59778 63.4524L7.62128 60.3969V63.2634C7.65278 63.5154 7.46378 63.7359 7.18028 63.7674C6.92828 63.7989 6.70778 63.6099 6.67628 63.3264C6.67628 63.2949 6.67628 63.2634 6.67628 63.2634L6.61328 59.5149Z" fill="#1D1A4F"/>
<path d="M12.3477 59.7039C12.3477 59.2314 12.5997 59.1054 12.9462 59.1054H15.4347C15.7497 59.1054 15.9702 59.1999 15.9702 59.5149C15.9702 59.8614 15.7497 59.9244 15.4347 59.9244H13.4187V60.9324H15.2142C15.4977 60.9324 15.7182 61.0269 15.7182 61.3419C15.7182 61.6569 15.4977 61.7514 15.2142 61.7514H13.4187V62.8854H15.4977C15.8127 62.8854 16.0332 62.9799 16.0332 63.2949C16.0332 63.6099 15.8127 63.7044 15.4977 63.7044H12.9777C12.5997 63.7044 12.3792 63.5469 12.3792 63.1059L12.3477 59.7039Z" fill="#1D1A4F"/>
<path d="M16.7266 59.7039C16.7266 59.2314 16.9786 59.1054 17.3251 59.1054H18.6166C19.7506 59.1054 20.8216 59.6094 20.8216 61.4049C20.8216 62.8539 20.0026 63.7044 18.5851 63.7044H17.3251C17.0416 63.7359 16.7581 63.5469 16.7266 63.2319C16.7266 63.1689 16.7266 63.1374 16.7266 63.0744V59.7039ZM17.7661 62.8539H18.6481C19.4986 62.8539 19.7506 62.0979 19.7506 61.4049C19.7506 60.4914 19.4041 59.9559 18.6166 59.9559H17.7346L17.7661 62.8539Z" fill="#1D1A4F"/>
<path d="M23.5625 59.5149C23.5625 59.2314 23.783 58.9794 24.098 58.9794C24.3815 58.9794 24.6335 59.1999 24.6335 59.5149V62.8224H26.3975C26.7125 62.8224 26.933 62.9799 26.933 63.2634C26.933 63.5469 26.681 63.7044 26.3975 63.7044H24.1925C23.909 63.7359 23.6255 63.5469 23.594 63.2319C23.594 63.1689 23.594 63.1374 23.594 63.0744L23.5625 59.5149Z" fill="#1D1A4F"/>
<path d="M27.4991 59.5149C27.4676 59.2314 27.6881 58.9794 27.9716 58.9479C28.2551 58.9164 28.5071 59.1369 28.5386 59.4204C28.5386 59.4519 28.5386 59.4834 28.5386 59.5149V63.2634C28.5701 63.5469 28.3496 63.7989 28.0661 63.8304C27.7826 63.8619 27.5306 63.6414 27.4991 63.3579C27.4991 63.3264 27.4991 63.2949 27.4991 63.2634V59.5149Z" fill="#1D1A4F"/>
<path d="M29.5469 59.7039C29.5469 59.2314 29.7989 59.1054 30.1454 59.1054H32.4764C32.7914 59.1054 33.0119 59.1999 33.0119 59.5149C33.0119 59.8614 32.7914 59.9244 32.4764 59.9244H30.5864V60.9954H32.1929C32.4764 60.9954 32.6969 61.0584 32.6969 61.4049C32.6969 61.7199 32.4764 61.8144 32.1929 61.8144H30.5864V63.2634C30.6179 63.5469 30.3974 63.7989 30.1139 63.8304C29.8304 63.8619 29.5784 63.6414 29.5469 63.3579C29.5469 63.3264 29.5469 63.2949 29.5469 63.2634V59.7039Z" fill="#1D1A4F"/>
<path d="M33.5781 59.7039C33.5781 59.2314 33.8301 59.1054 34.1766 59.1054H36.6651C36.9801 59.1054 37.2006 59.1999 37.2006 59.5149C37.2006 59.8614 36.9801 59.9244 36.6651 59.9244H34.6176V60.9324H36.4131C36.6966 60.9324 36.9171 61.0269 36.9171 61.3419C36.9171 61.6569 36.6966 61.7514 36.4131 61.7514H34.6176V62.8854H36.6966C37.0116 62.8854 37.2321 62.9799 37.2321 63.2949C37.2321 63.6099 37.0116 63.7044 36.6966 63.7044H34.1766C33.8931 63.7359 33.6096 63.5469 33.5781 63.2319C33.5781 63.1689 33.5781 63.1374 33.5781 63.0744V59.7039Z" fill="#1D1A4F"/>
<path d="M39.9414 59.7039C39.9414 59.2314 40.1934 59.1054 40.5399 59.1054H43.0284C43.3434 59.1054 43.5639 59.1999 43.5639 59.5149C43.5639 59.8614 43.3434 59.9244 43.0284 59.9244H40.9809V60.9324H42.7764C43.0599 60.9324 43.2804 61.0269 43.2804 61.3419C43.2804 61.6569 43.0599 61.7514 42.7764 61.7514H40.9809V62.8854H43.0599C43.3749 62.8854 43.5954 62.9799 43.5954 63.2949C43.5954 63.6099 43.3749 63.7044 43.0599 63.7044H40.5399C40.1619 63.7044 39.9414 63.5469 39.9414 63.1059V59.7039Z" fill="#EBFFFE"/>
<path d="M45.3597 59.3259C45.4227 59.1054 45.6432 58.9794 45.8637 59.0109H46.1157C46.3677 58.9794 46.6197 59.1369 46.6827 59.3889L47.9427 62.9169C48.0057 63.0429 48.0372 63.1689 48.0372 63.3264C48.0372 63.5784 47.8167 63.7989 47.5332 63.7989C47.3127 63.8304 47.1237 63.7044 47.0607 63.5154L46.7772 62.7594H45.0762L44.7927 63.5154C44.7297 63.7044 44.5407 63.8304 44.3202 63.7989C44.0682 63.8304 43.8477 63.6414 43.8477 63.3894C43.8477 63.3579 43.8477 63.3579 43.8477 63.3264C43.8477 63.2004 43.9107 63.0429 43.9422 62.9169L45.3597 59.3259ZM45.9897 60.1449L45.3597 62.0034H46.5882L45.9897 60.1449Z" fill="#EBFFFE"/>
<path d="M51.0283 61.0269C52.0048 61.2474 52.2568 61.8144 52.2568 62.3499C52.2568 63.1689 51.6268 63.7989 50.3668 63.7989C49.0438 63.7989 48.4453 63.1374 48.4453 62.6334C48.4453 62.4129 48.6343 62.1924 48.8548 62.1924H48.8863C49.4533 62.1924 49.2958 63.0114 50.3668 63.0114C50.9023 63.0114 51.2173 62.6964 51.2173 62.4129C51.2173 62.2239 51.1228 62.0349 50.7763 61.9404L49.5793 61.6254C48.6343 61.3734 48.4453 60.8379 48.4453 60.3654C48.4453 59.3259 49.3903 58.9479 50.3038 58.9479C51.1228 58.9479 52.0993 59.4204 52.0993 60.0189C52.0993 60.2709 51.8788 60.4599 51.6583 60.4284H51.6268C51.1543 60.4284 51.2173 59.7354 50.2408 59.7354C49.7683 59.7354 49.4848 59.9559 49.4848 60.2709C49.4848 60.5859 49.8628 60.6804 50.2093 60.7749L51.0283 61.0269Z" fill="#EBFFFE"/>
<path d="M53.9602 61.9089L52.6687 59.7669C52.6057 59.6724 52.5742 59.5779 52.5742 59.4834C52.5742 59.1999 52.8262 58.9794 53.0782 59.0109C53.0782 59.0109 53.0782 59.0109 53.1097 59.0109C53.3302 59.0109 53.5192 59.1054 53.5822 59.3259L54.4957 61.0269L55.4092 59.3259C55.4722 59.1369 55.6612 59.0109 55.8502 59.0109C56.1337 59.0109 56.3542 59.1999 56.3857 59.4834C56.3857 59.5779 56.3542 59.6724 56.2912 59.7669L54.9997 61.9089V63.2634C54.9997 63.5469 54.7792 63.7989 54.4642 63.7989C54.1807 63.7989 53.9287 63.5784 53.9287 63.2634L53.9602 61.9089Z" fill="#EBFFFE"/>
</g>
</g>
<defs>
<clipPath id="clip0_1218_5170">
<rect width="63" height="65" fill="white"/>
</clipPath>
<clipPath id="clip1_1218_5170">
<rect width="63" height="65" fill="white"/>
</clipPath>
</defs>
</svg>
