<svg width="38" height="38" viewBox="0 0 38 38" fill="none" xmlns="http://www.w3.org/2000/svg">
<rect x="0.5" y="0.5" width="37" height="37" rx="9.5" fill="#F9F9FA"/>
<rect x="0.5" y="0.5" width="37" height="37" rx="9.5" stroke="#D5D5D5"/>
<mask id="mask0_23_5532" style="mask-type:alpha" maskUnits="userSpaceOnUse" x="7" y="7" width="24" height="24">
<rect x="7" y="7" width="24" height="24" fill="#D9D9D9"/>
</mask>
<g mask="url(#mask0_23_5532)">
<path d="M14 28C13.45 28 12.9792 27.8042 12.5875 27.4125C12.1958 27.0208 12 26.55 12 26V13H11V11H16V10H22V11H27V13H26V26C26 26.55 25.8042 27.0208 25.4125 27.4125C25.0208 27.8042 24.55 28 24 28H14ZM24 13H14V26H24V13ZM16 24H18V15H16V24ZM20 24H22V15H20V24Z" fill="#1C1B1F"/>
</g>
</svg>
